# xmcd
#
# Track frame offsets:
#	150
#	15782
#	31730
#	47732
#	65755
#	80292
#	94975
#	109605
#	123960
#	139122
#	156855
#	175937
#	192810
#	208447
#
# Disc length: 2981 seconds
#
# Revision: 0
# Processed by: cddbd v1.5.2PL0 Copyright (c) Steve Scherf et al.
# Submitted via: EasyCDDAExtractor 2010.4.0.0
#
DISCID=b60ba30e
DTITLE=Various Artist - a marca do sul 7
DYEAR=1900
DGENRE=
TTITLE0=Tchê Garotos - Ajoelha e Chora
TTITLE1=Os Serranos - Metendo os Ferro
TTITLE2=Os Monarcas - Saudade
TTITLE3=Cristiano Quevedo - Contraponto
TTITLE4=Tchê Barbaridade - É Sábado o Dia
TTITLE5=Chiquito e Bordoneio - Roda Morena
TTITLE6=Mano Lima - Liberdade Xucra
TTITLE7=Os Mateadores - Romance de Um Peão Posteiro
TTITLE8=Mano Lima - Cadela Baia
TTITLE9=Candieiro - O Rei do Vanerão
TTITLE10=Conjunto Fogo de Chão - Estouro de Tropa
TTITLE11=Os Tiranos - Eu Sou da Serra
TTITLE12=Grupo Minuano - Ninguém Vê os Tombos Que Eu Caio
TTITLE13=Grupo Reponte - Tô de Volta Tio Totonho
EXTD=
EXTT0=
EXTT1=
EXTT2=
EXTT3=
EXTT4=
EXTT5=
EXTT6=
EXTT7=
EXTT8=
EXTT9=
EXTT10=
EXTT11=
EXTT12=
EXTT13=
PLAYORDER=
